<svg width="108" height="70" viewBox="0 0 108 70" fill="none" xmlns="http://www.w3.org/2000/svg">
<path fill-rule="evenodd" clip-rule="evenodd" d="M27.9844 28.4097V0H0V69.3702H27.9844V41.9782H38.7406V69.2849H66.5569L66.4724 48.1692L77.3122 69.3711H107.397L91.9345 38.5865C97.1445 35.2792 102.355 28.8342 102.355 19.5908C102.355 8.90597 96.1368 0.000897015 82.6066 0.000897015H38.7406V28.4106L27.9844 28.4097Z" fill="#F50057"/>
<path fill-rule="evenodd" clip-rule="evenodd" d="M26.5851 29.5119V1.10312H1.79453V67.3338H26.5851V39.9428H40.367V67.3338H65.1576V41.2145L78.4352 67.3338H104.739L97.3434 52.4935L89.9482 37.6532C94.9901 35.1097 100.957 28.4098 100.957 19.1664C100.957 8.48153 93.9816 1.10312 82.7211 1.10312H40.367V29.5119H26.5851Z" fill="#3F3D56"/>
<path fill-rule="evenodd" clip-rule="evenodd" d="M77.8173 21.2861C79.3302 21.9646 80.4232 22.049 82.9437 21.5401C86.3892 21.1165 88.4899 23.5757 88.0701 26.883C87.7339 29.7658 84.5402 30.7844 81.8516 33.4976C79.163 36.2108 78.0699 39.3494 75.0451 39.6877C71.9359 40.1122 69.499 37.9914 70.0032 34.5997C70.4239 31.97 70.3394 30.8679 69.499 29.4265C68.7421 30.9532 68.6594 32.0553 69.0792 34.6841C69.5826 38.0758 67.1457 40.1966 64.0364 39.7721C61.0116 39.4328 60.0031 36.2099 57.3136 33.4967C54.6241 30.7835 51.4312 29.7649 51.095 26.8821C50.6743 23.5739 52.7759 21.1156 56.2214 21.5392C58.7419 22.0481 59.7514 21.8785 61.3478 21.2852C59.7514 20.6911 58.7419 20.5214 56.2214 21.0303C52.7759 21.4548 50.6752 18.9948 51.095 15.6875C51.4312 12.8047 54.6241 11.786 57.3136 9.07282C60.0022 6.35966 61.0107 3.13671 64.0364 2.79745C67.1457 2.37382 69.5826 4.49374 69.0792 7.88542C68.6585 10.5142 68.7421 11.6173 69.499 13.143C70.3394 11.7016 70.4239 10.5995 70.0032 7.96979C69.499 4.5781 71.9359 2.45729 75.0451 2.88182C78.0699 3.22107 79.163 6.35876 81.8516 9.07193C84.5402 11.7851 87.7339 12.8038 88.0701 15.6866C88.4908 18.9939 86.3892 21.453 82.9437 21.0294C80.4232 20.5223 79.3302 20.6076 77.8173 21.2861V21.2861Z" fill="#F50057"/>
</svg>
